<?xml version="1.0" encoding="UTF-8" standalone="no"?>
<!-- Created with Inkscape (http://www.inkscape.org/) -->

<svg
   width="206.87682mm"
   height="140.99777mm"
   viewBox="0 0 206.87682 140.99777"
   version="1.1"
   id="svg1"
   xml:space="preserve"
   inkscape:version="1.4.2 (ebf0e940, 2025-05-08)"
   sodipodi:docname="irocz.svg"
   xmlns:inkscape="http://www.inkscape.org/namespaces/inkscape"
   xmlns:sodipodi="http://sodipodi.sourceforge.net/DTD/sodipodi-0.dtd"
   xmlns="http://www.w3.org/2000/svg"
   xmlns:svg="http://www.w3.org/2000/svg"><sodipodi:namedview
     id="namedview1"
     pagecolor="#ffffff"
     bordercolor="#cccccc"
     borderopacity="1"
     inkscape:showpageshadow="0"
     inkscape:pageopacity="1"
     inkscape:pagecheckerboard="0"
     inkscape:deskcolor="#d1d1d1"
     inkscape:document-units="mm"
     inkscape:zoom="0.46497302"
     inkscape:cx="317.2227"
     inkscape:cy="522.61096"
     inkscape:window-width="1512"
     inkscape:window-height="835"
     inkscape:window-x="1920"
     inkscape:window-y="88"
     inkscape:window-maximized="1"
     inkscape:current-layer="layer1" /><defs
     id="defs1" /><g
     inkscape:label="Layer 1"
     inkscape:groupmode="layer"
     id="layer1"
     transform="translate(-1.3813066,-3.1606076)"><path
       style="fill:#000000;stroke-width:1.57613"
       d="M 43.569404,143.95652 C 13.022798,143.66418 10.588139,143.57325 7.8899647,142.624 5.8103785,141.89238 4.657869,141.10256 3.8009381,139.8218 c -0.6562892,-0.9809 -1.0809199,-1.9652 -0.943623,-2.18737 0.137297,-0.22216 -0.1046712,-0.69796 -0.5376994,-1.05732 -0.5695246,-0.47267 -0.790024,-1.76919 -0.7970646,-4.68665 -0.014185,-5.89508 2.1244728,-52.884957 2.5059758,-55.059407 0.2848436,-1.623546 0.4063083,-1.331482 0.9895831,2.379457 0.3656865,2.326574 0.6827587,4.249983 0.7046055,4.274207 0.021845,0.02427 0.3371522,0.0602 0.7006795,0.07979 0.3635287,0.01971 1.9483037,0.594666 3.5217214,1.277867 1.9875766,0.86301 2.9249936,1.052564 3.0712036,0.621017 0.158515,-0.467836 0.626909,-0.451998 1.898159,0.06429 2.475585,1.005257 19.880919,2.34765 34.735766,2.679031 7.12516,0.158937 40.199644,0.05576 73.498855,-0.229195 63.21099,-0.541026 68.36482,-0.750515 71.6651,-2.912937 1.14154,-0.747968 1.24055,-0.749253 0.95781,-0.01262 -0.25771,0.671569 -0.0374,0.754721 1.20565,0.45487 2.6059,-0.628575 6.45072,-2.791633 6.70629,-3.772882 0.14233,-0.54671 0.27315,-0.276251 0.3138,0.649063 0.0383,0.872466 0.53806,10.985176 1.11052,22.472679 1.55308,31.16531 1.51738,31.85711 -1.84984,35.85884 -1.54995,1.84198 -4.03687,2.49789 -11.36938,2.9985 -6.48745,0.44293 -109.762532,0.61241 -148.319646,0.24338 z m -10.596195,-8.56513 c 0.991946,-2.37406 1.673618,-10.44238 0.882249,-10.44238 -0.336862,0 -0.598381,0.86411 -0.600108,1.98289 -0.0031,2.06998 -0.784484,7.43759 -1.335098,9.17242 -0.532838,1.67882 0.284977,1.12512 1.052957,-0.71293 z m 144.709071,-1.51534 c -0.27209,-1.27459 -0.65881,-3.94945 -0.85936,-5.94414 -0.20056,-1.99467 -0.56378,-3.42234 -0.80714,-3.17259 -0.52081,0.53445 0.29302,8.46304 1.08159,10.53714 0.80142,2.10786 1.15487,1.24952 0.58491,-1.42041 z M 41.189944,122.24353 c 0,-0.74332 -0.383728,-0.9959 -1.51298,-0.9959 -1.302001,0 -1.479932,0.17289 -1.275975,1.23981 0.188178,0.9844 0.499871,1.18956 1.51298,0.9959 0.810798,-0.15493 1.275975,-0.60699 1.275975,-1.23981 z m 66.624866,1.09814 c 11.02788,0.0637 48.91314,-1.46485 64.50979,-2.60267 20.8571,-1.52159 22.52694,-1.60281 21.65833,-1.05339 -0.56546,0.35768 -0.3156,0.49046 0.93416,0.49639 l 1.70612,0.008 -0.32601,-5.69787 -0.32601,-5.69787 1.46426,-0.66715 c 0.80534,-0.36694 1.32028,-0.81115 1.14432,-0.98711 -0.17597,-0.17596 -0.62313,-0.0782 -0.99367,0.2174 -0.94176,0.75107 -6.29746,1.12537 -28.12112,1.96531 l -18.98707,0.73076 -1.2472,1.59361 c -0.68594,0.87648 -2.09265,2.11613 -3.12598,2.75477 -1.74532,1.07867 -2.82479,1.19227 -15.19325,1.59875 -17.05114,0.56039 -39.261962,0.5608 -53.861312,10e-4 -12.618698,-0.48387 -13.652409,-0.75724 -16.46805,-4.35495 l -1.247524,-1.59403 -18.722354,-0.7225 c -21.586579,-0.83301 -27.885133,-1.25609 -28.282902,-1.89969 -0.156258,-0.25281 -0.56748,-0.45209 -0.913846,-0.44284 -1.318476,0.0352 1.494083,1.56949 2.8771,1.56949 0.799721,0 1.610879,0.25377 1.802576,0.56395 0.521974,0.84457 -0.210221,1.30977 -0.92946,0.59053 -1.062431,-1.06244 -1.418257,-0.70531 -1.352225,1.35716 0.03491,1.09059 -0.115607,3.58903 -0.33449,5.55209 l -0.39797,3.56919 1.760587,-0.008 c 1.331266,-0.006 1.567174,-0.13304 0.967432,-0.52069 -0.578119,-0.3736 -0.148047,-0.51825 1.586307,-0.5336 3.851624,-0.034 32.743065,2.28665 32.540488,2.61382 -0.101908,0.1646 2.944921,0.25044 6.770743,0.19077 4.405466,-0.0687 6.471328,0.0578 5.634117,0.34501 -0.78367,0.26883 1.638467,0.33346 5.948649,0.15869 5.780753,-0.23438 7.27057,-0.15336 7.27057,0.3958 0,0.5485 1.412883,0.62775 6.866785,0.38519 4.246051,-0.18884 6.988727,-0.10814 7.18628,0.21156 0.195818,0.31684 2.398859,0.39212 5.691479,0.19444 2.954588,-0.17739 8.58425,-0.30397 12.51035,-0.28132 z m 85.66054,-13.74355 c 0,-0.28169 0.35691,-0.51216 0.79316,-0.51216 0.43623,0 0.79316,0.0935 0.79316,0.2078 0,0.11428 -0.35693,0.34477 -0.79316,0.51217 -0.43625,0.16741 -0.79316,0.0739 -0.79316,-0.20781 z m -22.20827,13.23581 c 0,-0.77552 -0.35253,-1.05754 -1.32194,-1.05754 -1.66758,0 -1.77575,1.42535 -0.13224,1.74192 0.65436,0.12608 1.24923,0.26155 1.32192,0.30116 0.0727,0.0395 0.13223,-0.40389 0.13223,-0.98554 z m 5.10911,-0.66095 c -0.14674,-0.36353 -0.26672,-0.0661 -0.26672,0.66095 0,0.72707 0.12016,1.02451 0.26672,0.66097 0.14673,-0.36354 0.14673,-0.95841 0,-1.32192 z M 30.614568,121.23124 c -2.181171,-0.20579 -6.10728,-0.3597 -8.724685,-0.34205 l -4.758919,0.0322 5.023303,0.32634 c 2.762818,0.17949 6.688925,0.33341 8.724686,0.34205 l 3.701382,0.0157 z m 168.381442,-4.57058 -0.42781,-2.55141 -0.35619,2.64385 c -0.38576,2.86324 -0.16578,3.83653 0.67671,2.99406 0.33555,-0.33557 0.37556,-1.48653 0.1073,-3.0865 z m -186.896446,2.60408 c -0.0044,-0.21811 -0.238755,-0.75349 -0.520673,-1.18973 -0.414488,-0.64137 -0.514124,-0.56547 -0.520672,0.39657 -0.0044,0.65436 0.229849,1.18973 0.520672,1.18973 0.290824,0 0.525125,-0.17845 0.520673,-0.39657 z m 47.861672,-18.1959 c 0,-5.140021 0.118371,-5.896989 1.02641,-6.563631 0.872633,-0.640664 0.895224,-0.753568 0.150788,-0.753568 -1.376146,0 -1.966466,1.729938 -2.018045,5.913892 -0.04096,3.322457 -0.11771,3.625827 -0.543887,2.149837 -0.272909,-0.94517 -0.846315,-1.71849 -1.274234,-1.71849 -0.481085,0 -0.778035,-0.513682 -0.778035,-1.345882 0,-1.267149 -0.116003,-1.324694 -1.982882,-0.983544 -3.726469,0.680966 -4.358118,1.106937 -4.415051,2.977286 -0.05055,1.66066 -0.07169,1.67745 -0.515846,0.40967 -0.426254,-1.21664 -0.450731,-1.187285 -0.307353,0.36866 0.08568,0.92981 -0.02266,1.58028 -0.240771,1.44548 -0.218105,-0.13475 -0.565459,0.0282 -0.771898,0.36222 -0.274279,0.4438 -3.096052,0.50942 -10.479721,0.24364 -5.557408,-0.20002 -10.521744,-0.48577 -11.03186,-0.635 -0.510116,-0.14926 -1.273915,-0.90932 -1.697328,-1.68911 -0.585876,-1.07901 -0.774904,-1.18837 -0.791015,-0.4577 -0.04095,1.85685 1.006207,3.00432 2.773469,3.03918 1.378286,0.0272 1.499816,0.11114 0.642358,0.44367 -0.581648,0.2256 -3.345656,0.30249 -6.142244,0.17089 l -5.084703,-0.23927 -0.289042,-4.302356 c -0.158973,-2.366311 -0.803682,-5.935797 -1.432687,-7.932192 l -1.143645,-3.629818 -1.503365,1.440312 C 10.394547,91.427146 9.6922383,91.236499 9.1994258,88.992728 8.656124,86.519101 7.6608233,86.33052 8.0983484,88.784092 c 0.6730847,3.774577 2.0227536,8.12314 2.4409616,7.864685 0.370648,-0.229076 2.625882,5.594513 2.625882,6.780703 0,0.26588 -0.654352,0.323 -1.454115,0.12687 -1.364669,-0.33457 -1.399697,-0.30111 -0.569461,0.54406 0.76988,0.78373 3.616762,1.02468 21.943905,1.85731 11.582588,0.52623 22.248982,1.02891 23.703097,1.11712 1.454113,0.0883 2.762817,0.0803 2.908229,-0.0178 0.145414,-0.0981 0.264383,-2.7927 0.264383,-5.98825 z m 116.233834,4.8972 c 18.36077,-0.83489 21.16915,-1.07316 21.9439,-1.86179 0.83546,-0.85041 0.79824,-0.88222 -0.62415,-0.53318 -1.31298,0.3222 -1.47444,0.23957 -1.22343,-0.62616 0.15903,-0.54855 0.57993,-2.00862 0.93533,-3.244615 0.3554,-1.236002 0.83611,-2.247267 1.06825,-2.247267 0.63157,0 3.11191,-8.240093 3.11191,-10.338288 0,-2.442698 -0.84213,-2.32518 -1.24165,0.173272 -0.1756,1.098154 -0.66423,2.466358 -1.08584,3.040416 -0.75232,1.024375 -0.79479,1.016792 -2.28727,-0.4088 l -1.5207,-1.45257 -1.21385,3.303257 c -0.74815,2.03594 -1.32221,5.052503 -1.49631,7.862642 l -0.28244,4.559383 -4.84341,0.35554 c -2.83971,0.20844 -5.38125,0.14074 -6.14353,-0.16353 -1.2621,-0.50387 -1.25042,-0.52004 0.39976,-0.55257 1.11577,-0.0221 1.888,-0.38498 2.24727,-1.05631 0.98449,-1.83951 0.57504,-2.3341 -0.7493,-0.90512 -1.06149,1.14537 -1.76551,1.39913 -3.88169,1.39913 -1.42177,0 -6.18798,0.15604 -10.5916,0.34657 l -8.00658,0.34654 -0.73311,-1.74352 c -0.47639,-1.13302 -0.83524,-1.48581 -1.02481,-1.00751 -0.16043,0.4048 -0.3105,0.0758 -0.33347,-0.7312 -0.0449,-1.577178 -0.8276,-2.059325 -4.40407,-2.712906 l -1.98289,-0.362346 -0.0373,2.006836 c -0.0298,1.604246 -0.1283,1.794696 -0.49159,0.949306 -0.24995,-0.581636 -0.47117,-0.746065 -0.49162,-0.365358 -0.0204,0.380698 -0.27511,0.545098 -0.56592,0.365358 -0.3047,-0.1883 -0.52877,0.30413 -0.52877,1.16202 0,0.81885 -0.23105,2.29445 -0.51345,3.2791 -0.28239,0.98466 -0.42444,1.93488 -0.31565,2.11159 0.10874,0.17672 1.47009,0.25115 3.0251,0.1654 1.55501,-0.0858 12.30226,-0.58673 23.88276,-1.11332 z m -95.555278,-4.06172 c -0.176526,-0.46003 -0.320956,-1.71363 -0.320956,-2.785821 v -1.9494 l -5.023304,-0.151319 -5.023303,-0.151307 -0.09781,2.804888 -0.09781,2.804879 -0.195351,-2.809037 C 69.704434,97.124519 69.575825,96.873815 68.524957,97.023343 67.5227,97.165987 67.342159,97.56801 67.20418,99.96459 l -0.159825,2.77604 h 6.958199 c 6.127728,0 6.919895,-0.0997 6.637243,-0.83641 z m 62.073758,-2.012896 v -2.849299 l -5.15548,0.0733 -5.15551,0.0733 -0.31351,2.643836 -0.3135,2.643839 -0.083,-2.776029 c -0.0774,-2.586446 -0.17336,-2.776036 -1.405,-2.776036 -1.24982,0 -1.32192,0.158636 -1.32192,2.908226 v 2.908239 h 6.87399 6.87399 z m -96.500303,0.485456 c 0,-1.144553 -0.358649,-1.752148 -1.321921,-2.239474 l -1.321922,-0.668781 1.223232,-0.0084 c 1.05951,-0.006 1.201055,-0.236994 1.057537,-1.720205 -0.149308,-1.543074 -0.374874,-1.749247 -2.280769,-2.084617 -1.163291,-0.204694 -5.021541,-0.385886 -8.573889,-0.402648 -6.014928,-0.02836 -6.499231,0.04506 -7.046904,1.068378 -0.908672,1.697878 -0.243335,2.593812 1.9884,2.677564 l 1.99948,0.07498 -2.115076,0.321527 c -2.227892,0.338699 -2.943246,1.571433 -1.874221,3.229776 0.587771,0.91179 5.975825,1.46051 13.507134,1.3756 l 4.758919,-0.0537 z m -5.409816,-2.761526 c 0.514475,-0.134124 1.228313,-0.125292 1.586307,0.01959 0.357993,0.144842 -0.06294,0.254526 -0.93541,0.243747 -0.872468,-0.01081 -1.165372,-0.129245 -0.650897,-0.263357 z m 137.866399,3.609736 2.90822,-0.33605 0.15636,-3.568706 0.15635,-3.568693 h -8.76193 -8.76193 l -0.51569,1.356356 c -0.56289,1.480531 -0.70554,6.209053 -0.20249,6.712113 0.34129,0.34129 10.34884,-0.0552 15.02111,-0.59502 z M 77.542799,96.003391 c -1.963055,-0.101657 -5.175324,-0.101657 -7.138379,0 -1.963053,0.101656 -0.356918,0.184964 3.569189,0.184964 3.926109,0 5.532245,-0.08315 3.56919,-0.184964 z m 61.865941,0 c -1.96306,-0.101657 -5.17533,-0.101657 -7.13837,0 -1.96306,0.101656 -0.35693,0.184964 3.56919,0.184964 3.9261,0 5.53224,-0.08315 3.56918,-0.184964 z m -14.58029,-2.648162 c -11.14551,-0.07979 -29.229395,-0.07979 -40.186428,8.5e-5 -10.957026,0.07979 -1.837973,0.144998 20.264558,0.144998 22.10253,-3.6e-5 31.06738,-0.06525 19.92187,-0.144998 z m -80.830095,-7.899111 -6.973813,-0.195009 -0.212135,-1.703394 -0.212137,-1.70337 -0.08462,1.718498 c -0.09504,1.930198 -0.891175,2.284758 -1.416159,0.630679 -0.520208,-1.639036 -2.390968,-2.084798 -8.749494,-2.084798 -4.787073,0 -5.782033,0.136491 -5.782033,0.79316 0,0.436246 -0.317262,0.793161 -0.705026,0.793161 -1.205855,0 -1.434848,-0.657991 -0.476485,-1.369141 0.840186,-0.623457 0.845646,-0.738752 0.06507,-1.3742 C 18.394087,80.100845 16.51278,69.281827 17.37079,68.99582 c 0.346846,-0.115475 0.574748,-2.979819 0.610722,-7.675335 0.03157,-4.11998 0.234527,-8.918571 0.451028,-10.663505 0.280938,-2.264258 0.415897,-0.259211 0.47138,7.003081 l 0.07773,10.175698 42.698082,0.13523 c 23.483944,0.07438 62.150168,0.07294 85.924948,-0.0036 l 43.22685,-0.13839 0.006,-8.586373 c 0.006,-8.400628 0.33273,-12.552343 0.98871,-12.551911 0.18008,1.09e-4 0.41189,4.937486 0.51518,10.971947 0.11127,6.49725 0.4025,11.105722 0.71424,11.300263 0.71066,0.443467 -0.55795,9.851995 -1.54685,11.471973 -0.53455,0.875699 -0.58826,1.417422 -0.18829,1.899352 0.60811,0.732732 0.24407,1.370067 -0.78256,1.370067 -0.35545,0 -0.61322,-0.381656 -0.57285,-0.848146 0.0638,-0.737814 -0.71751,-0.83726 -6.0074,-0.76443 -4.33756,0.05972 -6.42191,0.306375 -7.27056,0.860342 -1.58871,1.03704 -1.50028,1.692483 0.26438,1.959806 0.79977,0.121207 -4.92657,0.255931 -12.7252,0.299514 -8.96066,0.05011 -14.55755,-0.123249 -15.20696,-0.470744 -0.98341,-0.526306 -0.96486,-0.605192 0.43134,-1.833973 1.40457,-1.236158 1.41559,-1.284643 0.29551,-1.300733 -0.63991,-0.0096 -1.40599,0.399692 -1.70243,0.908635 -0.45841,0.787056 -0.54135,0.702391 -0.55503,-0.566536 -0.01,-0.820533 0.36525,-1.873217 0.83133,-2.339287 0.64553,-0.645542 0.74828,-1.297813 0.4313,-2.73827 -0.22886,-1.039971 -0.41272,-3.135007 -0.40859,-4.655635 l 0.008,-2.764754 -21.98616,-0.143436 C 114.27225,69.22772 94.698894,69.22532 82.868288,69.30187 l -21.510189,0.138066 0.0062,2.505818 c 0.0035,1.378201 -0.154398,3.487199 -0.350727,4.686649 -0.300328,1.834777 -0.173383,2.351867 0.800025,3.258736 0.838792,0.781457 1.054564,1.400648 0.784549,2.251377 -0.204845,0.64541 -0.524893,0.94621 -0.711216,0.668469 -0.449416,-0.669971 -2.008453,-1.225777 -2.384218,-0.850021 -0.163983,0.163997 0.305617,0.77307 1.043554,1.353533 0.737938,0.580463 1.146272,1.246276 0.907414,1.479581 -0.592607,0.578829 -9.011334,0.898145 -17.454707,0.66204 z M 173.91091,83.176263 c 0,-0.872466 -0.23795,-1.586296 -0.52877,-1.586296 -0.29082,0 -0.52877,0.71383 -0.52877,1.586296 0,0.872467 0.23795,1.586309 0.52877,1.586309 0.29082,0 0.52877,-0.713842 0.52877,-1.586309 z M 34.39573,80.00367 h 3.621602 V 74.451572 68.89951 h -9.253455 -9.253454 v 5.272567 5.272579 l 1.718499,0.530175 c 0.945174,0.29162 3.479508,0.417393 5.631851,0.27952 2.152345,-0.13791 5.543074,-0.250681 7.534957,-0.250681 z M 58.110545,74.451572 V 68.89951 h -9.253453 -9.253454 v 5.552062 5.552098 h 9.253454 9.253453 z m 113.156535,0 V 68.89951 h -9.51785 -9.51784 v 5.552062 5.552098 h 9.51784 9.51785 z m 19.52103,4.81122 c 0.39359,-0.474252 0.5596,-2.424745 0.46134,-5.419884 l -0.15352,-4.679019 h -9.25346 -9.25345 l -0.15414,4.717086 c -0.0848,2.594377 -0.0328,5.033325 0.11559,5.419872 0.40284,1.049801 17.36417,1.014401 18.23762,-0.03797 z M 13.015511,79.435488 c 0.160492,-2.450328 0.378799,-4.554267 0.48513,-4.675462 0.433407,-0.493911 0.140748,7.680574 -0.299899,8.376836 -0.293011,0.462982 -0.364465,-0.964858 -0.185231,-3.701374 z M 195.23517,78.152971 c 10e-4,-2.035772 0.0979,-2.803782 0.21239,-1.706722 0.11439,1.097084 0.11247,2.762711 -0.005,3.701398 -0.1168,0.938676 -0.21048,0.0411 -0.20812,-1.994676 z m -91.65051,-0.264379 c 0,-1.903582 0.13224,-2.115078 1.32192,-2.115078 1.18974,0 1.32193,0.211496 1.32193,2.115078 0,1.903558 -0.13224,2.115078 -1.32193,2.115078 -1.18973,0 -1.32192,-0.21152 -1.32192,-2.115078 z M 5.7311084,76.786978 C 5.7138809,76.084155 5.3890451,72.891711 5.0092584,69.692671 4.6294702,66.493618 4.4357147,63.566695 4.5786872,63.188403 4.9550568,62.192591 9.6753328,58.694301 9.8669575,59.269176 10.040039,59.788417 6.335951,77.47555 5.9768559,77.844517 5.8589297,77.965724 5.7483371,77.489801 5.7311084,76.786978 Z M 203.58276,77.191429 c -0.0334,-0.238028 -0.89924,-4.266205 -1.924,-8.951544 -1.02476,-4.685326 -1.79629,-8.719536 -1.71448,-8.964905 0.0818,-0.245381 1.29493,0.332594 2.69587,1.284392 l 2.54718,1.730526 -0.35266,5.552073 c -0.30786,4.84716 -1.07721,10.59273 -1.25191,9.349458 z M 57.025673,58.985091 c -0.623896,-1.381397 -2.067001,-4.891115 -3.206896,-7.799329 -2.615775,-6.673671 -2.592039,-6.63314 -4.742374,-8.097053 -1.681119,-1.144499 -2.136528,-1.201588 -7.088764,-0.888772 -2.910727,0.18387 -8.707356,0.690014 -12.881401,1.124781 -4.174043,0.434755 -7.728625,0.651021 -7.899068,0.480573 C 20.778869,43.377 22.657338,39.634795 27.055741,32.15403 34.628269,19.274738 40.782861,11.021665 43.927764,9.5293185 44.908022,9.0641539 48.202731,8.4265928 51.249338,8.1125166 72.682369,5.902951 148.96425,6.2653512 162.26513,8.6399379 c 3.72487,0.6650023 5.70594,2.2633581 10.17418,8.2088481 4.70775,6.264167 16.67965,26.443536 16.05743,27.065767 -0.13019,0.130183 -3.8816,-0.131612 -8.33658,-0.581736 -14.25242,-1.439976 -17.62269,-1.561856 -19.29366,-0.697765 -2.41875,1.250783 -3.20248,2.469338 -5.4688,8.502934 -1.95548,5.206033 -4.66756,11.108353 -4.72799,10.289514 -0.0142,-0.183474 0.58207,-1.945482 1.3236,-3.915537 0.74153,-1.970056 2.26938,-6.253323 3.39522,-9.51838 l 2.04698,-5.93647 -1.9411,-0.320987 c -1.0676,-0.176517 -7.47335,-0.32357 -14.23497,-0.326778 -8.34534,-0.0048 -12.29388,-0.186815 -12.29388,-0.569348 0,-0.912072 1.08822,-2.767782 2.52945,-4.313446 2.11492,-2.26815 5.7564,-3.212537 11.40546,-2.957929 6.13265,0.276407 10.00195,1.884519 12.28888,5.107367 1.67985,2.367321 2.85849,3.147251 2.85849,1.89153 0,-2.850705 -4.88006,-7.547454 -9.28,-8.931409 -4.09479,-1.287953 -11.75091,-0.948974 -14.84465,0.657279 -2.7018,1.402758 -4.57662,3.582597 -5.77091,6.709799 l -0.91671,2.400341 -36.545381,0.0626 c -20.099978,0.03437 -37.18363,0.212866 -37.963675,0.396568 l -1.418268,0.334012 2.655515,6.874004 c 3.320261,8.594736 4.679204,12.426065 4.407433,12.426065 -0.116147,0 -0.721623,-1.130248 -1.345521,-2.511646 z M 54.591799,38.490619 c 2.568751,-3.073032 5.434785,-4.501954 10.22178,-5.096267 7.456862,-0.925773 13.058568,0.952536 15.244013,5.111492 1.349345,2.567833 2.6896,3.179839 2.154376,0.983748 -0.573592,-2.353514 -2.753322,-5.343219 -4.960566,-6.803916 -4.000761,-2.647573 -12.418892,-3.006254 -17.53848,-0.747261 -3.57837,1.578923 -7.947602,6.18659 -7.947602,8.381323 0,1.081138 0.857861,0.525994 2.826479,-1.829119 z M 43.822397,28.977334 c 3.203299,-5.525575 5.825005,-10.266426 5.826013,-10.535236 0.001,-0.26881 -0.533543,-0.0016 -1.187894,0.593667 -0.654353,0.59532 -1.469387,0.979818 -1.811187,0.854422 -1.361429,-0.49943 -9.152893,11.704032 -9.172523,14.366578 -0.0065,0.877071 -0.477068,2.189548 -1.04578,2.916623 -1.442419,1.844018 -1.351328,2.630942 0.254827,2.201402 1.021691,-0.273247 2.602344,-2.576149 7.136544,-10.397456 z M 174.96845,39.542331 c 0,-0.151151 -0.61205,-1.244426 -1.36009,-2.42942 -0.74805,-1.184988 -1.24756,-2.267067 -1.11001,-2.404615 0.49901,-0.49902 -0.83586,-4.205548 -2.44477,-6.788374 -2.59466,-4.165231 -5.84546,-8.195923 -6.6101,-8.195923 -0.38591,0 -0.54865,0.296107 -0.36325,0.660967 0.18473,0.363535 -0.15816,0.0993 -0.76196,-0.587347 -2.35391,-2.676572 -1.212,-0.320805 5.40072,11.141938 2.63584,4.569036 5.16679,8.408052 5.62435,8.53117 1.31028,0.352517 1.62511,0.366383 1.62511,0.07162 z M 164.13466,22.567138 c -0.49985,-0.762865 -0.64748,-1.225507 -0.32805,-1.028096 0.61041,0.377247 1.84154,2.415108 1.45904,2.415108 -0.12216,0 -0.63115,-0.624148 -1.13099,-1.387012 z M 48.370879,38.235505 c 0.696998,-0.0036 1.733357,-0.886393 2.828342,-2.411134 l 1.728251,-2.40655 -0.498359,-5.794779 C 52.155016,24.435911 51.7721,21.669609 51.578189,21.475697 51.0747,20.972201 50.162005,22.26411 45.381493,30.247035 c -2.427331,4.053374 -4.114391,7.422258 -3.941938,7.871661 0.23735,0.61853 0.889609,0.715008 3.066355,0.453537 1.520681,-0.182669 3.259916,-0.334192 3.864969,-0.336728 z M 168.62322,38.023709 c 0,-0.579418 -4.16664,-7.695472 -9.47392,-16.180221 -0.27134,-0.433814 -0.66757,-0.61455 -0.88047,-0.401646 -0.5953,0.595305 -1.21362,5.039653 -1.23229,8.857536 -0.0142,3.016467 0.17827,3.695796 1.57754,5.552072 1.28918,1.710227 2.02016,2.175792 3.81886,2.43224 4.23427,0.603702 6.19028,0.521548 6.19028,-0.259981 z m -42.91806,-0.762555 c 0.53337,-0.533359 1.9401,-2.972299 3.12604,-5.419876 3.46811,-7.157456 4.71783,-7.821213 14.80616,-7.8641 l 5.41837,-0.02301 2.11659,1.912227 2.11661,1.912212 v -4.810374 c 0,-5.380839 0.54206,-4.712118 -4.75892,-5.870859 -1.30871,-0.286052 -8.12228,-0.525924 -15.1413,-0.533033 l -12.76182,-0.01261 -0.86615,1.321935 -0.86615,1.321918 H 104.86914 90.84372 L 89.618592,17.87367 88.393479,16.551735 75.763667,16.56434 c -6.9464,0.0079 -13.700575,0.246981 -15.009278,0.533033 -5.299055,1.158316 -4.758919,0.498956 -4.758919,5.809343 0,2.611857 0.09518,4.748841 0.211508,4.748841 0.116328,0 1.044319,-0.832812 2.062198,-1.850695 l 1.850691,-1.850695 5.472758,0.02301 c 10.123526,0.04256 11.393458,0.708755 14.815926,7.771881 3.382734,6.981102 1.490346,6.481868 24.569349,6.481868 18.45634,0 19.82139,-0.06381 20.72726,-0.969773 z m -46.737788,14.13185 c -0.670786,-1.297153 -2.027856,-2.199083 -6.440604,-4.280576 -4.03686,-1.904183 -5.384307,-2.767842 -4.847989,-3.107393 0.408517,-0.258623 7.218415,-0.47388 15.133103,-0.478338 16.555771,-0.0096 15.130662,-0.523146 15.742706,5.676176 l 0.378493,3.833564 h -9.557939 -9.557918 z m 32.551778,-1.132592 c 0.002,-1.526816 0.25075,-3.668342 0.55362,-4.758925 l 0.55067,-1.982877 h 14.74946 c 8.11222,0 14.88044,0.211916 15.04052,0.470924 0.38731,0.626665 -1.22557,1.604369 -6.24576,3.786124 -3.35779,1.459274 -4.3261,2.145503 -4.98905,3.535745 l -0.82261,1.725034 h -9.4199 -9.4199 z m -98.88272,0.237944 c 0,-0.232669 0.25811,-0.681122 0.573578,-0.996606 0.41226,-0.412249 0.226364,-1.109376 -0.66096,-2.47865 C 11.384924,45.226666 11.148622,45.115901 8.4062787,45.080982 6.8067531,45.060675 4.5474388,44.875375 3.3855813,44.66931 1.2981097,44.299093 1.2751596,44.269738 1.4460708,42.188137 c 0.1963941,-2.391978 1.134045,-3.85893 1.1605682,-1.815709 0.035857,2.762447 1.0884933,3.298739 6.9785656,3.555427 l 5.4306844,0.23667 1.218134,-3.098995 c 0.669973,-1.704439 1.700866,-3.693864 2.290875,-4.420924 l 1.07274,-1.321917 -0.282606,1.65766 c -0.155439,0.911735 -1.00787,3.154905 -1.894299,4.984829 -0.88643,1.829935 -1.611691,3.403951 -1.611691,3.497833 0,0.09397 0.535378,0.174678 1.18973,0.179581 1.080708,0.0084 1.037553,0.106343 -0.470967,1.07286 -0.913384,0.585185 -1.953523,1.7709 -2.311418,2.634943 -0.596744,1.440673 -1.579957,2.155056 -1.579957,1.147961 z M 195.123,48.401939 c -0.0338,-0.367802 -0.83466,-1.140234 -1.77984,-1.716516 -1.52631,-0.930612 -1.58544,-1.04801 -0.52877,-1.049764 0.65436,-0.0011 1.18974,-0.151307 1.18974,-0.333664 0,-0.182429 -0.70491,-1.788564 -1.56647,-3.569185 -0.86154,-1.780645 -1.72907,-3.92735 -1.92781,-4.770485 -0.6402,-2.715994 0.79927,-1.017332 2.73216,3.224106 l 1.80496,3.960742 5.16284,-0.38669 c 5.92231,-0.443564 7.31557,-1.301395 6.82658,-4.20312 l -0.26808,-1.590839 0.73244,1.586321 c 0.40284,0.872466 0.74316,2.21486 0.75629,2.983099 0.0276,1.613296 -0.43214,1.78735 -6.17204,2.336871 -3.22967,0.309187 -3.94456,0.560937 -4.64995,1.637497 -0.45844,0.699687 -1.04303,1.142674 -1.29906,0.984445 -0.25603,-0.158252 -0.57491,0.131601 -0.7086,0.644101 -0.13365,0.512499 -0.27065,0.630894 -0.30439,0.263081 z M 174.96845,18.301507 c -4.24048,-5.476653 -4.96207,-6.509035 -4.54951,-6.509035 0.30294,0 6.57935,8.018782 7.96708,10.178809 1.78023,2.770951 0.52949,1.427929 -3.41757,-3.669774 z M 32.639027,19.988395 c 1.205575,-1.744936 3.172993,-4.243375 4.372042,-5.552071 2.702838,-2.950016 2.125568,-2.023818 -2.142161,3.436995 -4.207644,5.383929 -5.02198,6.156329 -2.229881,2.115076 z M 44.773414,6.9174134 c 0.833439,-1.0118453 8.856902,-2.2527191 20.211125,-3.1257866 10.959804,-0.8427316 68.834691,-0.8410229 79.844091,0.00312 11.34138,0.8688126 19.3769,2.1106164 20.21113,3.123423 0.59883,0.7270235 0.39319,0.7814001 -1.81767,0.4806425 -13.91566,-1.8930621 -22.15201,-2.2044119 -58.31551,-2.2044119 -36.163499,0 -44.399845,0.3113498 -58.315509,2.2044119 -2.210853,0.3007576 -2.416502,0.246381 -1.817657,-0.4806425 z"
       id="path1" /></g></svg>
